<?xml version="1.0" standalone="no"?>
<!DOCTYPE svg PUBLIC "-//W3C//DTD SVG 20010904//EN"
 "http://www.w3.org/TR/2001/REC-SVG-20010904/DTD/svg10.dtd">
<svg version="1.0" xmlns="http://www.w3.org/2000/svg"
 width="2000.000000pt" height="2000.000000pt" viewBox="0 0 2000.000000 2000.000000"
 preserveAspectRatio="xMidYMid meet">
<metadata>
Created by potrace 1.14, written by Peter Selinger 2001-2017
</metadata>
<g transform="translate(0.000000,2000.000000) scale(0.100000,-0.100000)"
fill="#000000" stroke="none">
<path d="M9628 19995 c-2 -1 -64 -6 -138 -9 -74 -4 -155 -9 -180 -11 -25 -2
-81 -6 -125 -9 -163 -13 -201 -16 -235 -21 -19 -2 -60 -7 -90 -10 -30 -4 -66
-8 -80 -10 -71 -10 -109 -15 -150 -20 -75 -10 -314 -45 -330 -50 -8 -2 -31 -6
-50 -9 -44 -7 -364 -72 -450 -92 -36 -9 -76 -18 -90 -20 -24 -5 -169 -42 -380
-98 -355 -93 -953 -303 -1285 -451 -33 -14 -69 -30 -80 -35 -11 -4 -64 -29
-118 -54 -54 -25 -100 -46 -103 -46 -6 0 -330 -162 -421 -211 -355 -190 -646
-366 -980 -594 -204 -139 -553 -401 -701 -527 -26 -22 -58 -49 -72 -61 -54
-44 -156 -131 -165 -141 -5 -6 -26 -24 -45 -40 -228 -187 -770 -746 -1052
-1086 -263 -316 -590 -768 -778 -1075 -321 -523 -527 -921 -745 -1435 -198
-468 -351 -925 -480 -1435 -39 -154 -83 -345 -99 -427 -6 -35 -48 -250 -52
-273 -16 -82 -72 -452 -79 -530 -3 -27 -7 -61 -10 -75 -2 -14 -7 -59 -11 -100
-3 -41 -8 -88 -10 -105 -2 -16 -6 -70 -9 -120 -4 -49 -8 -106 -10 -125 -19
-167 -27 -941 -12 -1195 17 -278 21 -330 42 -535 3 -25 7 -70 10 -100 3 -30 8
-66 10 -80 2 -14 9 -63 15 -110 17 -131 20 -153 25 -180 3 -14 7 -43 11 -65 3
-22 7 -51 10 -65 2 -14 7 -41 10 -60 18 -116 49 -266 104 -515 18 -77 33 -147
35 -155 43 -207 226 -804 325 -1065 23 -60 43 -114 44 -120 4 -13 15 -44 31
-80 7 -16 29 -70 48 -120 96 -246 395 -883 471 -1003 13 -20 40 -68 60 -107
52 -97 70 -129 76 -135 3 -3 16 -25 29 -50 79 -145 336 -540 504 -775 132
-184 371 -495 432 -561 5 -7 26 -31 44 -54 19 -23 40 -48 45 -54 6 -6 40 -45
76 -86 223 -257 637 -676 851 -861 13 -11 38 -33 54 -47 129 -116 227 -198
465 -389 189 -152 673 -491 852 -598 10 -5 73 -44 140 -85 68 -41 132 -80 143
-86 11 -6 98 -54 192 -107 228 -128 589 -307 783 -389 25 -10 53 -23 62 -28
19 -10 93 -42 253 -107 357 -144 818 -297 1175 -389 52 -13 109 -29 125 -34
17 -5 41 -11 55 -14 14 -2 52 -11 85 -19 33 -9 71 -18 85 -21 14 -2 69 -14
124 -25 54 -12 108 -23 120 -25 198 -37 259 -48 361 -65 66 -11 138 -23 160
-26 21 -2 75 -10 120 -16 44 -6 100 -13 125 -15 25 -2 56 -6 70 -9 14 -2 54
-7 90 -11 36 -3 79 -8 95 -9 29 -3 136 -12 245 -20 357 -27 1063 -27 1400 0
25 2 81 6 125 10 44 3 98 8 120 10 22 2 67 7 100 10 33 3 71 8 85 10 14 2 50
7 80 10 30 3 66 7 80 9 23 4 60 9 160 22 19 3 46 7 60 10 13 3 40 7 59 10 38
5 46 6 176 28 50 9 101 18 115 21 14 3 52 10 84 16 33 5 62 12 65 14 3 1 22 6
41 9 19 3 87 17 150 32 63 14 122 27 130 29 8 2 35 8 60 15 25 7 52 14 60 15
12 3 148 39 260 69 307 83 779 247 1120 389 265 111 304 129 599 273 233 115
409 209 624 335 32 19 66 39 75 44 437 255 1075 719 1438 1044 22 20 78 70
124 111 254 227 544 519 796 800 68 76 65 72 106 121 20 24 46 55 58 69 97
109 389 489 526 685 147 208 366 546 425 655 11 19 25 44 32 55 40 64 77 126
77 129 0 2 19 36 41 77 68 122 273 526 329 649 61 135 200 459 200 469 1 3 9
24 20 46 11 22 19 47 20 55 0 9 4 20 9 25 5 6 21 46 36 90 15 44 33 94 40 110
17 39 127 367 159 475 14 47 36 123 50 170 59 201 186 736 211 890 3 19 8 46
10 60 12 59 16 83 40 230 13 85 27 175 30 200 3 25 7 55 9 67 3 12 7 48 11 80
3 32 7 72 9 88 3 17 7 62 11 100 4 39 9 81 10 95 2 14 7 70 10 125 4 55 9 109
11 119 18 95 26 956 11 1206 -15 242 -15 247 -32 435 -3 33 -8 74 -10 90 -2
17 -6 66 -10 110 -4 44 -9 83 -11 87 -2 3 -6 30 -9 60 -3 29 -10 82 -16 118
-11 72 -56 347 -64 395 -16 88 -36 190 -55 275 -11 52 -23 106 -25 120 -3 14
-25 106 -51 205 -25 99 -49 196 -54 215 -4 19 -25 91 -45 160 -20 69 -38 130
-39 135 -12 56 -206 618 -245 710 -16 37 -43 103 -61 150 -4 11 -15 36 -23 55
-8 19 -27 64 -42 100 -374 896 -1000 1896 -1650 2630 -22 25 -60 68 -84 95
-208 236 -564 594 -781 785 -40 36 -78 70 -84 75 -127 121 -675 554 -811 641
-16 10 -34 23 -40 27 -25 21 -200 139 -305 206 -218 140 -265 170 -295 187
-11 6 -60 35 -110 64 -140 81 -152 88 -285 160 -115 62 -588 300 -593 298 -1
-1 -29 11 -62 26 -417 191 -1126 442 -1533 541 -9 3 -69 18 -132 34 -196 49
-573 130 -725 155 -16 3 -59 10 -95 16 -100 17 -202 32 -310 45 -25 3 -61 8
-80 10 -19 3 -60 7 -90 10 -30 3 -71 8 -90 11 -19 3 -62 7 -95 9 -33 3 -80 7
-105 10 -25 2 -92 7 -150 10 -58 4 -132 9 -165 11 -64 6 -891 14 -897 9z"/>
</g>
</svg>
